<svg width="48" height="48" viewBox="0 0 48 48" fill="none" xmlns="http://www.w3.org/2000/svg">
<path d="M31.4989 15.249H30.4155V13.0823H28.2489V15.249H19.5822V13.0823H17.4155V15.249H16.3322C15.1297 15.249 14.1764 16.224 14.1764 17.4157L14.1655 32.5823C14.1655 33.157 14.3938 33.7081 14.8001 34.1144C15.2065 34.5207 15.7576 34.749 16.3322 34.749H31.4989C32.6905 34.749 33.6655 33.774 33.6655 32.5823V17.4157C33.6655 16.224 32.6905 15.249 31.4989 15.249ZM31.4989 32.5823H16.3322V21.749H31.4989V32.5823ZM20.6655 26.0823H18.4989V23.9157H20.6655V26.0823ZM24.9989 26.0823H22.8322V23.9157H24.9989V26.0823ZM29.3322 26.0823H27.1655V23.9157H29.3322V26.0823ZM20.6655 30.4157H18.4989V28.249H20.6655V30.4157ZM24.9989 30.4157H22.8322V28.249H24.9989V30.4157ZM29.3322 30.4157H27.1655V28.249H29.3322V30.4157Z" fill="white"/>
</svg>
