<svg width="48" height="48" viewBox="0 0 48 48" fill="none" xmlns="http://www.w3.org/2000/svg">
<g clip-path="url(#clip0_437_149)">
<path d="M34.7489 16.874H20.6655C19.4739 16.874 18.4989 17.849 18.4989 19.0406V28.7906C18.4989 29.3653 18.7271 29.9164 19.1335 30.3227C19.5398 30.729 20.0909 30.9573 20.6655 30.9573H34.7489C35.9514 30.9573 36.9155 29.9931 36.9155 28.7906V19.0406C36.9155 18.466 36.6873 17.9149 36.2809 17.5086C35.8746 17.1022 35.3235 16.874 34.7489 16.874ZM34.7489 28.7906H20.6655V20.8498L27.7072 24.4573L34.7489 20.8498V28.7906ZM27.7072 22.6265L20.6655 19.0406H34.7489L27.7072 22.6265ZM16.3322 28.7906C16.3322 28.9748 16.3647 29.1481 16.3864 29.3323H11.9989C11.4009 29.3323 10.9155 28.8448 10.9155 28.249C10.9155 27.6531 11.4009 27.1656 11.9989 27.1656H16.3322V28.7906ZM14.1655 18.499H16.3864C16.3647 18.6831 16.3322 18.8565 16.3322 19.0406V20.6656H14.1655C13.5697 20.6656 13.0822 20.1781 13.0822 19.5823C13.0822 18.9865 13.5697 18.499 14.1655 18.499ZM11.9989 23.9156C11.9989 23.3198 12.4864 22.8323 13.0822 22.8323H16.3322V24.999H13.0822C12.4864 24.999 11.9989 24.5115 11.9989 23.9156Z" fill="white"/>
</g>
<defs>
<clipPath id="clip0_437_149">
<rect width="26" height="26" fill="white" transform="translate(10.9155 10.9156)"/>
</clipPath>
</defs>
</svg>
