<svg width="48" height="48" viewBox="0 0 48 48" fill="none" xmlns="http://www.w3.org/2000/svg">
<path d="M27.978 27.1656C27.7625 27.1656 27.5559 27.2513 27.4035 27.4036C27.2511 27.556 27.1655 27.7627 27.1655 27.9781C27.1655 28.1936 27.2511 28.4003 27.4035 28.5527C27.5559 28.705 27.7625 28.7906 27.978 28.7906H31.228C31.4435 28.7906 31.6502 28.705 31.8026 28.5527C31.9549 28.4003 32.0405 28.1936 32.0405 27.9781C32.0405 27.7627 31.9549 27.556 31.8026 27.4036C31.6502 27.2513 31.4435 27.1656 31.228 27.1656H27.978ZM12.5405 19.8531C12.5405 18.7757 12.9685 17.7424 13.7304 16.9805C14.4923 16.2187 15.5256 15.7906 16.603 15.7906H31.228C32.3055 15.7906 33.3388 16.2187 34.1006 16.9805C34.8625 17.7424 35.2905 18.7757 35.2905 19.8531V27.9781C35.2905 29.0556 34.8625 30.0889 34.1006 30.8508C33.3388 31.6126 32.3055 32.0406 31.228 32.0406H16.603C15.5256 32.0406 14.4923 31.6126 13.7304 30.8508C12.9685 30.0889 12.5405 29.0556 12.5405 27.9781V19.8531ZM33.6655 20.6656V19.8531C33.6655 19.2067 33.4087 18.5867 32.9516 18.1296C32.4945 17.6725 31.8745 17.4156 31.228 17.4156H16.603C15.9566 17.4156 15.3366 17.6725 14.8795 18.1296C14.4223 18.5867 14.1655 19.2067 14.1655 19.8531V20.6656H33.6655ZM14.1655 22.2906V27.9781C14.1655 28.6246 14.4223 29.2446 14.8795 29.7017C15.3366 30.1588 15.9566 30.4156 16.603 30.4156H31.228C31.8745 30.4156 32.4945 30.1588 32.9516 29.7017C33.4087 29.2446 33.6655 28.6246 33.6655 27.9781V22.2906H14.1655Z" fill="white"/>
</svg>
