<svg width="48" height="48" viewBox="0 0 48 48" fill="none" xmlns="http://www.w3.org/2000/svg">
<path d="M22.2884 30.4168L18.2746 26.403L19.8075 24.8701L22.2927 27.3553L28.0268 21.6212L29.5597 23.1541L22.2884 30.4168ZM33.6655 17.4157V31.499C33.6655 32.0736 33.4373 32.6247 33.0309 33.0311C32.6246 33.4374 32.0735 33.6657 31.4989 33.6657H16.3322C15.7576 33.6657 15.2065 33.4374 14.8001 33.0311C14.3938 32.6247 14.1655 32.0736 14.1655 31.499V17.4157C14.1655 16.841 14.3938 16.2899 14.8001 15.8836C15.2065 15.4773 15.7576 15.249 16.3322 15.249H17.4155V13.0823H19.5822V15.249H28.2489V13.0823H30.4155V15.249H31.4989C32.0735 15.249 32.6246 15.4773 33.0309 15.8836C33.4373 16.2899 33.6655 16.841 33.6655 17.4157ZM31.4989 19.5823H16.3322V31.499H31.4989V19.5823Z" fill="white"/>
</svg>
