<svg width="48" height="48" viewBox="0 0 48 48" fill="none" xmlns="http://www.w3.org/2000/svg">
<g clip-path="url(#clip0_437_152)">
<path d="M30.4154 32.0406C30.8627 32.0425 31.3018 31.9212 31.6848 31.6901C32.0678 31.459 32.3798 31.127 32.5866 30.7304C32.7935 30.3338 32.8872 29.8879 32.8576 29.4416C32.828 28.9953 32.6761 28.5658 32.4186 28.2C32.1611 27.8343 31.8079 27.5464 31.3978 27.368C30.9876 27.1896 30.5362 27.1274 30.0931 27.1884C29.65 27.2494 29.2322 27.4312 28.8855 27.7138C28.5387 27.9964 28.2765 28.3689 28.1274 28.7906H21.4779V29.6031C21.4779 30.4066 21.2396 31.1921 20.7932 31.8602C20.3468 32.5282 19.7123 33.0489 18.97 33.3564C18.2277 33.6639 17.4109 33.7443 16.6228 33.5876C15.8348 33.4308 15.1109 33.0439 14.5428 32.4758C13.9746 31.9076 13.5877 31.1838 13.4309 30.3957C13.2742 29.6077 13.3546 28.7908 13.6621 28.0485C13.9696 27.3062 14.4903 26.6717 15.1584 26.2253C15.8264 25.7789 16.6119 25.5406 17.4154 25.5406V23.9156C16.3252 23.9158 15.2581 24.2292 14.341 24.8186C13.4239 25.408 12.6955 26.2486 12.2426 27.2402C11.7897 28.2318 11.6313 29.3327 11.7863 30.4118C11.9413 31.4909 12.4032 32.5027 13.1169 33.3267C13.8306 34.1508 14.7661 34.7523 15.812 35.0598C16.8579 35.3672 17.9702 35.3676 19.0163 35.0609C20.0624 34.7541 20.9983 34.1532 21.7126 33.3297C22.4269 32.5061 22.8894 31.4946 23.0452 30.4156H28.1274C28.2939 30.8899 28.6033 31.3008 29.0131 31.5918C29.4229 31.8828 29.9128 32.0396 30.4154 32.0406Z" fill="white"/>
<path d="M30.4154 23.9156C29.7007 23.9156 28.9924 24.0499 28.3272 24.3113L25.7549 19.8101C26.1375 19.3674 26.351 18.8034 26.3575 18.2183C26.3639 17.6332 26.1629 17.0647 25.79 16.6137C25.4172 16.1627 24.8967 15.8583 24.3208 15.7546C23.7449 15.6509 23.1508 15.7545 22.6441 16.0471C22.1373 16.3397 21.7506 16.8023 21.5524 17.3529C21.3543 17.9035 21.3577 18.5065 21.5618 19.0549C21.766 19.6033 22.1578 20.0616 22.6678 20.3486C23.1778 20.6356 23.7729 20.7327 24.3476 20.6226L27.6943 26.4791L28.3996 26.0745C29.0965 25.6763 29.8958 25.4936 30.6966 25.5494C31.4973 25.6051 32.2636 25.8968 32.8987 26.3876C33.5338 26.8784 34.0093 27.5464 34.2651 28.3072C34.521 29.068 34.5457 29.8876 34.3362 30.6624C34.1267 31.4373 33.6923 32.1327 33.0879 32.6609C32.4836 33.1891 31.7363 33.5265 30.9403 33.6304C30.1444 33.7343 29.3356 33.6001 28.6158 33.2447C27.8961 32.8893 27.2978 32.3287 26.8964 31.6336L25.4892 32.4477C25.9885 33.3122 26.7065 34.03 27.5711 34.529C28.4357 35.028 29.4164 35.2907 30.4147 35.2906C31.4129 35.2906 32.3936 35.0277 33.2581 34.5286C34.1226 34.0294 34.8406 33.3115 35.3397 32.447C35.8389 31.5825 36.1017 30.6018 36.1017 29.6035C36.1018 28.6052 35.8391 27.6245 35.3401 26.7599C34.841 25.8953 34.1232 25.1773 33.2587 24.6781C32.3943 24.1788 31.4136 23.9158 30.4154 23.9156Z" fill="white"/>
<path d="M17.8478 27.2095C17.2763 27.1019 16.6852 27.2 16.1792 27.4865C15.6732 27.7729 15.2849 28.2293 15.0831 28.7746C14.8814 29.32 14.8792 29.9192 15.0769 30.466C15.2746 31.0129 15.6596 31.4721 16.1635 31.7623C16.6674 32.0524 17.2577 32.1549 17.83 32.0515C18.4022 31.948 18.9193 31.6454 19.2897 31.1972C19.6602 30.7489 19.86 30.184 19.8538 29.6026C19.8476 29.0211 19.6358 28.4606 19.2558 28.0204L22.2012 22.8659L22.6058 22.1607L21.9005 21.7568C21.2023 21.3579 20.6381 20.7607 20.2796 20.0409C19.921 19.3211 19.7841 18.5111 19.8862 17.7135C19.9884 16.9158 20.3249 16.1664 20.8533 15.5602C21.3817 14.954 22.0781 14.5182 22.8543 14.3081C23.6306 14.098 24.4517 14.1229 25.2137 14.3798C25.9757 14.6368 26.6444 15.114 27.1349 15.7513C27.6255 16.3885 27.9159 17.1569 27.9693 17.9593C28.0228 18.7617 27.8369 19.5619 27.4353 20.2586L28.8417 21.0727C29.3878 20.1268 29.6501 19.0437 29.597 17.9528C29.544 16.8619 29.178 15.8093 28.5427 14.9208C27.9074 14.0323 27.0298 13.3456 26.0146 12.9426C24.9994 12.5397 23.8897 12.4375 22.8181 12.6484C21.7464 12.8593 20.7581 13.3743 19.9713 14.1319C19.1846 14.8895 18.6326 15.8576 18.3813 16.9205C18.13 17.9834 18.1901 19.0962 18.5544 20.1259C18.9187 21.1555 19.5718 22.0585 20.4356 22.727C20.0643 23.3298 19.5402 24.2471 18.7513 25.6292L17.8478 27.2095Z" fill="white"/>
</g>
<defs>
<clipPath id="clip0_437_152">
<rect width="26" height="26" fill="white" transform="translate(10.9155 10.9156)"/>
</clipPath>
</defs>
</svg>
