<?xml version="1.0" standalone="no"?>
<!DOCTYPE svg PUBLIC "-//W3C//DTD SVG 20010904//EN"
 "http://www.w3.org/TR/2001/REC-SVG-20010904/DTD/svg10.dtd">
<svg version="1.0" xmlns="http://www.w3.org/2000/svg"
 width="400.000000pt" height="400.000000pt" viewBox="0 0 400.000000 400.000000"
 preserveAspectRatio="xMidYMid meet">
<metadata>
Created by potrace 1.14, written by Peter Selinger 2001-2017
</metadata>
<g transform="translate(0.000000,400.000000) scale(0.100000,-0.100000)"
fill="#000000" stroke="none">
<path d="M571 3983 c-65 -34 -71 -59 -71 -313 0 -253 5 -277 71 -312 31 -17
70 -18 592 -18 613 0 593 -2 638 61 22 31 22 41 23 248 1 119 -3 232 -7 253
-5 20 -22 49 -39 65 l-29 28 -572 3 c-530 2 -574 1 -606 -15z"/>
<path d="M2243 3980 c-61 -37 -66 -53 -67 -236 l-1 -165 -296 -294 -296 -295
-489 0 c-455 0 -492 -1 -523 -18 -19 -10 -43 -34 -53 -53 -17 -31 -18 -70 -18
-589 0 -519 1 -558 18 -589 10 -19 34 -43 53 -53 31 -17 68 -18 522 -18 l488
0 298 -295 297 -296 0 -476 c-1 -509 0 -524 49 -572 l25 -26 558 -3 c306 -2
572 0 590 3 42 8 89 54 97 97 3 18 5 281 3 583 -3 532 -4 551 -23 577 -42 55
-22 53 -558 55 l-499 2 -297 295 -297 296 0 420 0 420 297 295 298 295 488 0
c454 0 491 1 522 18 65 35 71 59 71 309 0 133 -4 233 -11 250 -12 33 -39 60
-74 73 -16 6 -242 10 -583 10 -534 0 -558 -1 -589 -20z"/>
<path d="M580 1307 c-30 -14 -59 -44 -71 -75 -13 -34 -12 -1114 1 -1148 12
-31 44 -62 78 -75 13 -5 272 -9 575 -9 608 0 594 -1 641 63 19 26 20 41 20
590 0 544 -1 564 -20 598 -40 69 -23 67 -642 67 -391 0 -564 -3 -582 -11z"/>
</g>
</svg>
