<svg
  width="60"
  height="60"
  viewBox="0 0 60 60"
  fill="none"
  xmlns="http://www.w3.org/2000/svg"
>
  <rect width="60" height="60" rx="8" fill="#FF546D" />
  <path
    d="M22 24H30V26H22V24ZM22 20H34V22H22V20ZM22 16H34V18H22V16Z"
    fill="white"
  />
  <path
    d="M18.711 42L24.342 32.004L31.776 38.494C32.0007 38.694 32.2677 38.8407 32.5569 38.9232C32.8462 39.0057 33.1504 39.0219 33.4467 38.9706C33.7431 38.9192 34.0242 38.8017 34.2688 38.6268C34.5135 38.4518 34.7156 38.2239 34.86 37.96L41.83 27.557L40.169 26.443L33.169 36.891L33.099 36.994L25.664 30.504C25.4393 30.3052 25.1729 30.1594 24.8843 30.0773C24.5958 29.9952 24.2925 29.9791 23.9968 30.0299C23.7012 30.0808 23.4207 30.1974 23.1762 30.3712C22.9316 30.545 22.7293 30.7715 22.584 31.034L18 39.183V16H16V42C16.0005 42.5303 16.2114 43.0387 16.5864 43.4136C16.9613 43.7886 17.4697 43.9995 18 44H44V42H18.711Z"
    fill="white"
  />
</svg>
