<svg
  width="60"
  height="60"
  viewBox="0 0 60 60"
  fill="none"
  xmlns="http://www.w3.org/2000/svg"
>
  <rect width="60" height="60" rx="8" fill="#FFAA50" />
  <path
    d="M38.9598 33.6798C39.4265 32.5464 39.6798 31.3331 39.6798 29.9998C39.6798 29.0398 39.5332 28.1198 39.2798 27.2664C38.4132 27.4664 37.5065 27.5731 36.5598 27.5731C34.6211 27.5752 32.7103 27.1111 30.9885 26.2201C29.2667 25.329 27.7844 24.037 26.6665 22.4531C25.4706 25.3467 23.2147 27.6742 20.3598 28.9598C20.3065 29.2931 20.3065 29.6531 20.3065 29.9998C20.3065 31.2727 20.5572 32.5332 21.0444 33.7092C21.5315 34.8853 22.2455 35.9539 23.1456 36.854C24.9635 38.6718 27.429 39.6931 29.9998 39.6931C31.3998 39.6931 32.7465 39.3864 33.9598 38.8398C34.7198 40.2931 35.0665 41.0131 35.0398 41.0131C32.8532 41.7464 31.1598 42.1064 29.9998 42.1064C26.7732 42.1064 23.6932 40.8398 21.4265 38.5598C20.0478 37.1853 19.023 35.4971 18.4398 33.6398H16.6665V27.5731H18.1198C18.5602 25.4298 19.5725 23.4456 21.0494 21.8312C22.5264 20.2168 24.4128 19.0323 26.5085 18.4034C28.6043 17.7746 30.8312 17.7248 32.953 18.2594C35.0748 18.794 37.0122 19.893 38.5598 21.4398C40.2401 23.1134 41.3862 25.2479 41.8532 27.5731H43.3332V33.6398H43.2532L38.5065 37.9998L31.4398 37.1998V34.9731H37.8798L38.9598 33.6798ZM26.3598 29.6931C26.7598 29.6931 27.1465 29.8531 27.4265 30.1464C27.7079 30.4301 27.8658 30.8135 27.8658 31.2131C27.8658 31.6127 27.7079 31.9961 27.4265 32.2798C27.1465 32.5598 26.7598 32.7198 26.3598 32.7198C25.5198 32.7198 24.8398 32.0531 24.8398 31.2131C24.8398 30.3731 25.5198 29.6931 26.3598 29.6931ZM33.6265 29.6931C34.4665 29.6931 35.1332 30.3731 35.1332 31.2131C35.1332 32.0531 34.4665 32.7198 33.6265 32.7198C32.7865 32.7198 32.1065 32.0531 32.1065 31.2131C32.1065 30.81 32.2666 30.4234 32.5517 30.1383C32.8368 29.8532 33.2234 29.6931 33.6265 29.6931Z"
    fill="white"
  />
</svg>
