<svg
  width="60"
  height="60"
  viewBox="0 0 60 60"
  fill="none"
  xmlns="http://www.w3.org/2000/svg"
>
  <rect width="60" height="60" rx="8" fill="#8102C1" />
  <path
    d="M16.6665 21.9998C16.6665 19.9932 17.7065 17.8932 19.3332 16.6665C19.3332 17.7932 20.2532 19.3332 21.9998 19.3332C23.0607 19.3332 24.0781 19.7546 24.8283 20.5047C25.5784 21.2549 25.9998 22.2723 25.9998 23.3332C25.9998 23.8478 25.8945 24.3358 25.7172 24.7878C26.7062 25.5728 27.6801 26.3765 28.6385 27.1985L25.8652 29.9718C25.0434 29.0132 24.2398 28.0392 23.4545 27.0505C22.9917 27.2352 22.4982 27.3311 21.9998 27.3332C19.0532 27.3332 16.6665 24.9465 16.6665 21.9998ZM32.8692 31.1305L34.6572 29.3425C35.4852 29.7688 36.4019 29.994 37.3332 29.9998C38.9245 29.9998 40.4506 29.3677 41.5758 28.2425C42.701 27.1173 43.3332 25.5911 43.3332 23.9998C43.3332 23.0332 43.0825 22.1318 42.6758 21.3238L37.9998 25.9998L35.3332 23.3332L40.0092 18.6572C39.1812 18.2309 38.2644 18.0057 37.3332 17.9998C35.7419 17.9998 34.2157 18.632 33.0905 19.7572C31.9653 20.8824 31.3332 22.4085 31.3332 23.9998C31.3332 24.9665 31.5838 25.8678 31.9905 26.6758L17.9998 40.6665L20.6665 43.3332L29.7972 34.2025C32.3083 36.779 34.9694 39.205 37.7665 41.4678L39.6665 42.9998L41.6665 40.9998L40.1345 39.0998C37.8717 36.3027 35.4457 33.6417 32.8692 31.1305Z"
    fill="white"
  />
</svg>
