<svg width="1551" height="400" viewBox="0 0 1551 400" fill="none" xmlns="http://www.w3.org/2000/svg">
<path d="M0 13.1868C0 5.90394 5.896 0 13.1691 0H118.522C125.795 0 131.691 5.90394 131.691 13.1868V52.7473C131.691 60.0301 125.795 65.9341 118.522 65.9341H13.1691C5.896 65.9341 0 60.0301 0 52.7473V13.1868Z" fill="#151718"/>
<path d="M166.808 13.1868C166.808 5.90394 172.704 0 179.978 0H285.33C292.603 0 298.499 5.90394 298.499 13.1868V52.7473C298.499 60.0301 292.603 65.9341 285.33 65.9341H190.952L131.691 125.275V208.791L190.952 268.132H285.33C292.603 268.132 298.499 274.036 298.499 281.319V386.813C298.499 394.096 292.603 400 285.33 400H179.978C172.704 400 166.808 394.096 166.808 386.813V292.308L107.548 232.967H13.1691C5.896 232.967 0 227.063 0 219.78V114.286C0 107.003 5.896 101.099 13.1691 101.099H107.548L166.808 41.7582V13.1868Z" fill="#E54D2E"/>
<path d="M13.1691 268.132C5.896 268.132 0 274.036 0 281.319V386.813C0 394.096 5.896 400 13.1691 400H118.522C125.795 400 131.691 394.096 131.691 386.813V281.319C131.691 274.036 125.795 268.132 118.522 268.132H13.1691Z" fill="#E54D2E"/>
<path d="M452.734 305.827C452.734 314.251 451.024 322.28 447.604 329.915C444.447 337.286 440.105 343.735 434.58 349.264C429.055 354.792 422.478 359.135 414.848 362.294C407.482 365.453 399.72 367.033 391.564 367.033C382.882 367.033 374.726 365.453 367.096 362.294C359.73 359.135 353.284 354.792 347.759 349.264C342.234 343.735 337.893 337.286 334.736 329.915C331.579 322.28 330 314.251 330 305.827V171.569C330 163.145 331.579 155.247 334.736 147.876C337.893 140.242 342.234 133.661 347.759 128.132C353.284 122.604 359.73 118.26 367.096 115.101C374.726 111.679 382.882 109.968 391.564 109.968C399.72 109.968 407.482 111.679 414.848 115.101C422.478 118.26 429.055 122.604 434.58 128.132C440.105 133.661 444.447 140.242 447.604 147.876C451.024 155.247 452.734 163.145 452.734 171.569V305.827ZM417.216 171.569C417.216 164.461 414.585 158.406 409.323 153.405C404.324 148.139 398.405 145.507 391.564 145.507C384.198 145.507 378.015 148.139 373.016 153.405C368.017 158.406 365.518 164.461 365.518 171.569V305.827C365.518 313.198 368.017 319.384 373.016 324.386C378.015 329.125 384.198 331.494 391.564 331.494C398.405 331.494 404.324 329.125 409.323 324.386C414.585 319.384 417.216 313.198 417.216 305.827V171.569Z" fill="#151718"/>
<path d="M596.606 361.505H561.088V174.728C561.088 167.62 558.194 161.565 552.406 156.564C546.881 151.299 540.567 148.666 533.463 148.666C526.36 148.666 519.914 151.299 514.126 156.564C508.338 161.565 505.444 167.62 505.444 174.728V361.505H469.926V115.496H493.604L501.497 126.948C504.917 122.209 509.39 118.787 514.915 116.681C520.703 114.312 526.886 113.127 533.463 113.127C542.145 113.127 550.301 114.838 557.931 118.26C565.561 121.419 572.138 125.763 577.663 131.291C583.451 136.82 588.056 143.401 591.476 151.035C594.896 158.406 596.606 166.304 596.606 174.728V361.505Z" fill="#151718"/>
<path d="M685.87 332.284C689.553 332.284 692.842 331.494 695.736 329.915C698.63 328.072 700.734 325.966 702.05 323.597L726.518 350.053C722.045 355.318 716.125 359.399 708.759 362.294C701.655 365.453 694.552 367.033 687.448 367.033C669.821 367.033 656.14 361.505 646.405 350.448C636.934 339.128 632.198 324.386 632.198 306.222V146.692H609.703V115.496H632.198V70.4803L667.716 58.634V115.496H714.678V146.692H667.716V306.222C667.716 323.597 673.767 332.284 685.87 332.284Z" fill="#151718"/>
<path d="M847.312 305.827C847.312 314.251 845.734 322.28 842.577 329.915C839.683 337.286 835.473 343.735 829.948 349.264C824.686 354.792 818.372 359.135 811.005 362.294C803.639 365.453 795.746 367.033 787.327 367.033C778.908 367.033 771.015 365.453 763.648 362.294C756.281 359.135 749.836 354.792 744.311 349.264C739.049 343.735 734.839 337.286 731.682 329.915C728.788 322.28 727.341 314.251 727.341 305.827V171.569C727.341 163.145 728.92 155.247 732.077 147.876C735.234 140.242 739.575 133.661 745.1 128.132C750.625 122.604 757.071 118.26 764.437 115.101C772.067 111.679 780.223 109.968 788.905 109.968C797.061 109.968 804.823 111.548 812.189 114.707C819.819 117.602 826.396 121.946 831.921 127.738C837.446 133.529 841.788 140.637 844.945 149.061C848.365 157.222 850.075 166.435 850.075 176.702C850.075 193.287 848.365 207.239 844.945 218.559C841.788 229.879 836.657 239.883 829.553 248.57C822.45 256.994 813.373 264.76 802.323 271.868C791.273 278.712 778.118 286.083 762.859 293.981V305.827C762.859 313.198 765.095 319.384 769.568 324.386C774.04 329.125 779.96 331.494 787.327 331.494C794.43 331.494 800.218 329.125 804.691 324.386C809.427 319.384 811.795 313.198 811.795 305.827V301.878L847.312 290.032V305.827ZM814.557 178.677C814.557 166.304 811.926 157.748 806.664 153.01C801.665 148.008 795.746 145.507 788.905 145.507C781.539 145.507 775.356 148.139 770.357 153.405C765.358 158.406 762.859 164.461 762.859 171.569V253.308C773.646 248.043 782.328 242.647 788.905 237.118C795.746 231.59 801.008 225.799 804.691 219.744C808.637 213.689 811.268 207.371 812.584 200.79C813.899 193.945 814.557 186.574 814.557 178.677Z" fill="#151718"/>
<path d="M992.791 361.505H957.273V174.728C957.273 167.62 954.379 161.565 948.591 156.564C943.066 151.299 936.752 148.666 929.648 148.666C922.544 148.666 916.099 151.299 910.31 156.564C904.522 161.565 901.628 167.62 901.628 174.728V361.505H866.11V115.496H889.789L897.682 126.948C901.102 122.209 905.575 118.787 911.1 116.681C916.888 114.312 923.071 113.127 929.648 113.127C938.33 113.127 946.486 114.838 954.116 118.26C961.746 121.419 968.323 125.763 973.848 131.291C979.636 136.82 984.24 143.401 987.66 151.035C991.081 158.406 992.791 166.304 992.791 174.728V361.505Z" fill="#151718"/>
<path d="M1136.12 301.878C1136.12 310.302 1134.67 318.332 1131.78 325.966C1128.89 333.337 1124.81 339.786 1119.55 345.315C1114.55 350.843 1108.5 355.187 1101.39 358.346C1094.29 361.505 1086.53 363.084 1078.11 363.084C1068.9 363.084 1061.01 361.636 1054.43 358.741C1048.12 355.845 1043.77 352.817 1041.41 349.658L1033.51 361.505H1009.83V44.8133L1045.35 32.967V122.209C1046.93 119.05 1050.75 116.286 1056.8 113.917C1062.85 111.284 1069.82 109.968 1077.71 109.968C1086.13 109.968 1093.89 111.679 1101 115.101C1108.36 118.26 1114.55 122.604 1119.55 128.132C1124.81 133.661 1128.89 140.242 1131.78 147.876C1134.67 155.247 1136.12 163.145 1136.12 171.569V301.878ZM1072.98 145.507C1065.61 145.507 1059.16 148.139 1053.64 153.405C1048.11 158.406 1045.35 164.461 1045.35 171.569V301.878C1045.35 309.249 1048.11 315.436 1053.64 320.438C1059.16 325.176 1065.61 327.545 1072.98 327.545C1080.08 327.545 1086.4 325.176 1091.92 320.438C1097.71 315.436 1100.6 309.249 1100.6 301.878V171.569C1100.6 164.461 1097.71 158.406 1091.92 153.405C1086.4 148.139 1080.08 145.507 1072.98 145.507Z" fill="#151718"/>
<path d="M1273.2 361.505H1249.52L1241.63 347.289C1238.73 352.554 1234.26 356.766 1228.21 359.925C1222.42 363.084 1214.4 364.664 1204.14 364.664C1197.56 364.664 1190.98 363.347 1184.41 360.715C1178.09 358.082 1172.3 354.397 1167.04 349.658C1162.04 344.657 1157.83 338.602 1154.41 331.494C1151.26 324.386 1149.68 316.225 1149.68 307.012C1149.68 294.112 1151.26 282.793 1154.41 273.052C1157.57 263.312 1161.65 254.625 1166.65 246.99C1171.91 239.356 1177.7 232.643 1184.01 226.852C1190.59 221.06 1197.17 215.663 1203.74 210.662C1210.32 205.66 1216.5 201.053 1222.29 196.841C1228.34 192.629 1233.47 188.285 1237.68 183.81V171.569C1237.68 164.461 1235.84 158.406 1232.16 153.405C1228.74 148.139 1223.48 145.507 1216.37 145.507C1202.95 145.507 1194.53 151.43 1191.11 163.276L1160.73 142.743C1162.57 138.794 1165.2 134.845 1168.62 130.897C1172.04 126.948 1176.12 123.525 1180.85 120.63C1185.59 117.471 1190.85 114.97 1196.64 113.127C1202.69 111.021 1209.27 109.968 1216.37 109.968C1224.79 109.968 1232.42 111.679 1239.26 115.101C1246.36 118.26 1252.42 122.604 1257.41 128.132C1262.41 133.661 1266.23 140.242 1268.86 147.876C1271.75 155.247 1273.2 163.145 1273.2 171.569V361.505ZM1237.68 229.616C1233.21 232.512 1227.95 236.065 1221.9 240.277C1215.85 244.489 1210.06 249.623 1204.53 255.678C1199.27 261.732 1194.67 268.709 1190.72 276.606C1187.04 284.24 1185.19 293.059 1185.19 303.063C1185.19 310.434 1187.69 316.62 1192.69 321.622C1197.69 326.624 1203.87 329.125 1211.24 329.125C1214.66 329.125 1217.95 328.335 1221.11 326.756C1224.53 324.913 1227.42 322.675 1229.79 320.043C1232.16 317.147 1234 313.988 1235.31 310.566C1236.89 306.88 1237.68 303.195 1237.68 299.509V229.616Z" fill="#151718"/>
<path d="M1413.94 299.509C1413.94 308.196 1412.63 316.62 1410 324.781C1407.63 332.942 1403.81 340.181 1398.55 346.499C1393.29 352.817 1386.58 357.819 1378.43 361.505C1370.53 365.19 1361.06 367.033 1350.01 367.033C1341.07 367.033 1332.78 365.453 1325.15 362.294C1317.78 359.399 1311.34 355.318 1305.81 350.053C1300.29 344.788 1295.94 338.47 1292.79 331.099C1289.89 323.465 1288.45 315.041 1288.45 305.827V288.847L1323.96 296.745V305.827C1323.96 313.461 1326.6 319.648 1331.86 324.386C1337.12 329.125 1343.56 331.494 1351.19 331.494C1358.82 331.494 1365.14 329.256 1370.14 324.781C1375.14 320.043 1377.64 313.725 1377.64 305.827C1377.64 299.772 1376.71 294.507 1374.87 290.032C1373.29 285.293 1371.06 281.081 1368.16 277.396C1361.32 269.498 1353.43 262.259 1344.49 255.678C1335.8 249.096 1327.52 241.989 1319.62 234.354C1311.99 226.457 1305.42 217.638 1299.89 207.898C1294.63 198.157 1292 186.179 1292 171.964C1292 163.276 1293.45 155.116 1296.34 147.481C1299.23 139.847 1303.31 133.266 1308.57 127.738C1314.1 122.209 1320.54 117.866 1327.91 114.707C1335.28 111.548 1343.43 109.968 1352.38 109.968C1361.59 109.968 1369.74 111.548 1376.85 114.707C1383.95 117.866 1389.87 122.209 1394.61 127.738C1399.6 133.266 1403.29 139.847 1405.66 147.481C1408.29 154.852 1409.6 162.882 1409.6 171.569V188.549L1375.27 180.651V171.569C1375.27 164.724 1373.03 158.67 1368.56 153.405C1364.09 148.139 1358.3 145.507 1351.19 145.507C1343.56 145.507 1337.65 148.271 1333.44 153.799C1329.23 159.064 1327.12 165.251 1327.12 172.359C1327.12 180.519 1329.23 187.89 1333.44 194.472C1337.91 200.79 1343.3 206.976 1349.62 213.031C1355.93 218.823 1362.9 224.746 1370.53 230.8C1378.16 236.592 1385.13 242.91 1391.45 249.755C1397.76 256.336 1403.02 263.707 1407.23 271.868C1411.71 280.028 1413.94 289.242 1413.94 299.509Z" fill="#151718"/>
<path d="M1547.57 305.827C1547.57 314.251 1545.99 322.28 1542.84 329.915C1539.94 337.286 1535.73 343.735 1530.21 349.264C1524.95 354.792 1518.63 359.135 1511.27 362.294C1503.9 365.453 1496.01 367.033 1487.59 367.033C1479.17 367.033 1471.28 365.453 1463.91 362.294C1456.54 359.135 1450.1 354.792 1444.57 349.264C1439.31 343.735 1435.1 337.286 1431.94 329.915C1429.05 322.28 1427.6 314.251 1427.6 305.827V171.569C1427.6 163.145 1429.18 155.247 1432.34 147.876C1435.49 140.242 1439.84 133.661 1445.36 128.132C1450.89 122.604 1457.33 118.26 1464.7 115.101C1472.33 111.679 1480.48 109.968 1489.17 109.968C1497.32 109.968 1505.08 111.548 1512.45 114.707C1520.08 117.602 1526.66 121.946 1532.18 127.738C1537.71 133.529 1542.05 140.637 1545.2 149.061C1548.63 157.222 1550.34 166.435 1550.34 176.702C1550.34 193.287 1548.63 207.239 1545.2 218.559C1542.05 229.879 1536.92 239.883 1529.81 248.57C1522.71 256.994 1513.63 264.76 1502.58 271.868C1491.53 278.712 1478.38 286.083 1463.12 293.981V305.827C1463.12 313.198 1465.36 319.384 1469.83 324.386C1474.3 329.125 1480.22 331.494 1487.59 331.494C1494.69 331.494 1500.48 329.125 1504.95 324.386C1509.69 319.384 1512.05 313.198 1512.05 305.827V301.878L1547.57 290.032V305.827ZM1514.82 178.677C1514.82 166.304 1512.19 157.748 1506.92 153.01C1501.93 148.008 1496.01 145.507 1489.17 145.507C1481.8 145.507 1475.62 148.139 1470.62 153.405C1465.62 158.406 1463.12 164.461 1463.12 171.569V253.308C1473.91 248.043 1482.59 242.647 1489.17 237.118C1496.01 231.59 1501.27 225.799 1504.95 219.744C1508.9 213.689 1511.53 207.371 1512.84 200.79C1514.16 193.945 1514.82 186.574 1514.82 178.677Z" fill="#151718"/>
</svg>
