<svg width="110" height="110" viewBox="0 0 110 110" fill="none" xmlns="http://www.w3.org/2000/svg">
<path d="M105 55C105 82.6142 82.6142 105 55 105C27.3858 105 5 82.6142 5 55C5 27.3858 27.3858 5 55 5C82.6142 5 105 27.3858 105 55Z" fill="#F03E3E"/>
<path fill-rule="evenodd" clip-rule="evenodd" d="M110 55C110 85.3757 85.3757 110 55 110C24.6243 110 0 85.3757 0 55C0 24.6243 24.6243 0 55 0C85.3757 0 110 24.6243 110 55ZM55 105C82.6142 105 105 82.6142 105 55C105 27.3858 82.6142 5 55 5C27.3858 5 5 27.3858 5 55C5 82.6142 27.3858 105 55 105Z" fill="white"/>
<path d="M75.7106 51.5654C78.3544 53.0918 78.3546 56.9082 75.7106 58.4346L47.949 74.4628C45.305 75.9892 42 74.0812 42 71.0282V38.9718C42 35.9188 45.305 34.0108 47.949 35.5372L75.7106 51.5654Z" fill="white"/>
</svg>
