<svg width="70" height="70" viewBox="0 0 70 70" fill="none" xmlns="http://www.w3.org/2000/svg">
  <path
    d="M23.909 43.0062C24.5925 43.4931 25.4111 43.7544 26.2503 43.7536C27.0895 43.7528 27.9076 43.49 28.5902 43.0019C29.2761 42.4957 29.7955 41.7965 30.0821 40.9937L31.6002 36.3256C31.9637 35.2255 32.5796 34.2256 33.3985 33.406C34.2174 32.5863 35.2167 31.9695 36.3165 31.605L41.0677 30.0606C41.8645 29.7748 42.5513 29.2459 43.0311 28.5485C43.5109 27.8511 43.7595 27.0206 43.7416 26.1742C43.7237 25.3279 43.4403 24.5087 42.9314 23.8322C42.4226 23.1557 41.714 22.6562 40.9058 22.4044L36.229 20.8906C35.1283 20.5271 34.1279 19.9113 33.3076 19.0924C32.4872 18.2736 31.8696 17.2743 31.504 16.1744L29.9596 11.4319C29.681 10.6476 29.1654 9.96946 28.4842 9.4913C27.803 9.01314 26.99 8.75866 26.1577 8.76312C25.314 8.75953 24.4905 9.02116 23.8036 9.51103C23.1167 10.0009 22.601 10.6943 22.3296 11.4931L20.7721 16.2619C20.4063 17.3292 19.8039 18.3 19.0099 19.1016C18.2159 19.9031 17.2509 20.5148 16.1871 20.8906L11.4446 22.4262C10.6523 22.7062 9.96711 23.2264 9.48447 23.9143C9.00183 24.6021 8.74581 25.4234 8.75207 26.2637C8.75833 27.104 9.02656 27.9214 9.51939 28.602C10.0122 29.2826 10.7051 29.7925 11.5015 30.0606L16.1696 31.5787C17.2714 31.9476 18.2723 32.5677 19.0931 33.39C19.9139 34.2124 20.5322 35.2144 20.899 36.3169L22.439 41.0419C22.7146 41.8294 23.2308 42.5162 23.9133 43.0019L23.909 43.0062ZM46.0902 60.5981C46.6839 61.0181 47.393 61.2443 48.1202 61.2456C48.8544 61.2363 49.5677 61 50.1622 60.5692C50.7567 60.1384 51.2034 59.5341 51.4408 58.8394L52.5258 55.5056C52.7539 54.8113 53.142 54.1803 53.6588 53.6636C54.1756 53.1468 54.8065 52.7587 55.5008 52.5306L58.8783 51.4281C59.5769 51.1886 60.1818 50.7342 60.6065 50.13C61.0312 49.5259 61.2539 48.8028 61.2427 48.0644C61.2316 47.326 60.9871 46.61 60.5443 46.019C60.1016 45.4279 59.4832 44.992 58.7777 44.7737L55.4352 43.6844C54.7435 43.4541 54.1147 43.0663 53.5985 42.5515C53.0822 42.0368 52.6925 41.4091 52.4602 40.7181L51.3577 37.3319C51.1205 36.6364 50.6705 36.0333 50.0714 35.6079C49.4723 35.1825 48.7545 34.9565 48.0197 34.9618C47.285 34.9672 46.5706 35.2036 45.9777 35.6376C45.3848 36.0716 44.9436 36.6812 44.7165 37.38L43.6358 40.7137C43.4121 41.3986 43.0336 42.0228 42.5299 42.5379C42.0261 43.0531 41.4106 43.4454 40.7308 43.6844L37.3358 44.7912C36.8219 44.9699 36.3568 45.2659 35.9773 45.6558C35.5978 46.0457 35.3144 46.5186 35.1496 47.0372C34.9848 47.5557 34.9432 48.1055 35.028 48.6429C35.1129 49.1803 35.3218 49.6906 35.6383 50.1331C36.0715 50.7456 36.684 51.205 37.3883 51.4456L40.7265 52.5262C41.4207 52.7584 42.0511 53.1495 42.5676 53.6682C43.0841 54.187 43.4723 54.8191 43.7015 55.5144L44.8083 58.9006C45.048 59.5851 45.4988 60.1783 46.0902 60.5981Z"
    fill="#E54D2E" />
</svg>
  