<svg width="51" height="50" viewBox="0 0 51 50" fill="none" xmlns="http://www.w3.org/2000/svg">
<path d="M17.2507 17.3066L13.2312 21.3261L17.2507 25.3455" stroke="black" stroke-width="2.22326" stroke-miterlimit="10" stroke-linecap="round" stroke-linejoin="round"/>
<path d="M33.3283 17.3066L37.3477 21.3261L33.3283 25.3455" stroke="black" stroke-width="2.22326" stroke-miterlimit="10" stroke-linecap="round" stroke-linejoin="round"/>
<path d="M27.2994 13.2871L23.28 29.3649" stroke="black" stroke-width="2.22326" stroke-miterlimit="10" stroke-linecap="round" stroke-linejoin="round"/>
<path d="M1.57495 1.22852L5.5944 3.23824" stroke="black" stroke-width="2.22326" stroke-miterlimit="10" stroke-linecap="round" stroke-linejoin="round"/>
<path d="M44.9851 3.23824L49.0045 1.22852" stroke="black" stroke-width="2.22326" stroke-miterlimit="10" stroke-linecap="round" stroke-linejoin="round"/>
<path d="M1.57491 41.0214L5.59436 39.0117" stroke="black" stroke-width="2.22326" stroke-miterlimit="10" stroke-linecap="round" stroke-linejoin="round"/>
<path d="M44.9851 39.0117L49.0045 41.0214" stroke="black" stroke-width="2.22326" stroke-miterlimit="10" stroke-linecap="round" stroke-linejoin="round"/>
<path d="M45.3869 21.3257C45.3869 8.81123 33.9484 -1.0318 20.9561 1.68163C13.0959 3.32317 6.85837 9.85187 5.49889 17.7659C3.92879 26.9055 8.54513 35.1425 15.8335 39.0386C16.7044 39.5042 17.2508 40.4143 17.2508 41.4018V41.4229C17.2508 45.8627 20.8499 48.6579 25.2897 48.6579C29.7294 48.6579 33.3286 45.8627 33.3286 41.4229V41.4018C33.3286 40.4133 33.874 39.5047 34.7458 39.0386C41.0733 35.6561 45.3869 29.0018 45.3869 21.3257Z" stroke="black" stroke-width="2.22326" stroke-miterlimit="10" stroke-linecap="round" stroke-linejoin="round"/>
</svg>
