<svg width="500" height="500" viewBox="0 0 500 500" fill="none" xmlns="http://www.w3.org/2000/svg">
  <path fill-rule="evenodd" clip-rule="evenodd"
    d="M500 250C500 388.071 388.072 500 250 500C111.929 500 0 388.071 0 250C0 111.929 111.929 0 250 0C388.072 0 500 111.929 500 250ZM349.499 449.9C319.541 464.841 285.752 473.244 250 473.244C206.875 473.244 166.605 461.016 132.47 439.838L153.846 396.321C153.846 396.321 156.355 390.469 156.355 384.616L156.672 229.422C173.267 223.299 185.1 207.341 185.1 188.619C185.1 164.606 165.635 145.141 141.623 145.141C117.61 145.141 98.1439 164.606 98.1439 188.619C98.1439 207.964 110.778 224.357 128.245 230L127.927 376.254C127.927 376.254 128.209 381.363 127.927 384.616C127.199 392.977 125.418 396.321 125.418 396.321L110.985 424.69C59.6542 383.787 26.7559 320.735 26.7559 250C26.7559 126.705 126.706 26.7558 250 26.7558C253.872 26.7558 257.721 26.8544 261.544 27.0492L232.442 94.4817C232.442 94.4817 229.933 100.334 229.933 106.188L231.606 287.368C215.01 293.491 203.177 309.449 203.177 328.171C203.177 352.183 222.644 371.649 246.656 371.649C270.668 371.649 290.134 352.183 290.134 328.171C290.134 308.826 277.501 292.432 260.034 286.79L258.361 114.549C258.361 114.549 258.079 109.441 258.361 106.188C259.089 97.8262 260.87 94.4817 260.87 94.4817L291.775 30.6577C395.103 50.217 473.245 140.983 473.245 250C473.245 325.706 435.56 392.61 377.927 432.979V416.388L376.572 229.422C393.168 223.299 405.001 207.341 405.001 188.619C405.001 164.606 385.534 145.141 361.522 145.141C337.509 145.141 318.044 164.606 318.044 188.619C318.044 207.964 330.677 224.357 348.144 230L349.499 408.027V449.9ZM226.589 328.171C226.589 317.088 235.573 308.104 246.656 308.104C257.738 308.104 266.722 317.088 266.722 328.171C266.722 339.253 257.738 348.238 246.656 348.238C235.573 348.238 226.589 339.253 226.589 328.171ZM161.689 188.619C161.689 199.701 152.705 208.685 141.623 208.685C130.539 208.685 121.555 199.701 121.555 188.619C121.555 177.536 130.539 168.552 141.623 168.552C152.705 168.552 161.689 177.536 161.689 188.619ZM361.522 208.685C372.605 208.685 381.589 199.701 381.589 188.619C381.589 177.536 372.605 168.552 361.522 168.552C350.44 168.552 341.456 177.536 341.456 188.619C341.456 199.701 350.44 208.685 361.522 208.685Z"
    stroke="currentColor" fill="currentColor" />
</svg>